<?xml version="1.0" encoding="UTF-8" standalone="no"?>
<!-- Created with Inkscape (http://www.inkscape.org/) -->

<svg
   width="97.5mm"
   height="65mm"
   viewBox="0 0 97.5 65"
   version="1.1"
   id="svg5"
   sodipodi:docname="switch.svg"
   inkscape:version="1.1.1 (3bf5ae0d25, 2021-09-20)"
   xmlns:inkscape="http://www.inkscape.org/namespaces/inkscape"
   xmlns:sodipodi="http://sodipodi.sourceforge.net/DTD/sodipodi-0.dtd"
   xmlns:xlink="http://www.w3.org/1999/xlink"
   xmlns="http://www.w3.org/2000/svg"
   xmlns:svg="http://www.w3.org/2000/svg"
   xmlns:rdf="http://www.w3.org/1999/02/22-rdf-syntax-ns#"
   xmlns:cc="http://creativecommons.org/ns#"
   xmlns:dc="http://purl.org/dc/elements/1.1/">
  <sodipodi:namedview
     id="namedview7"
     pagecolor="#ffffff"
     bordercolor="#666666"
     borderopacity="1.0"
     inkscape:pageshadow="2"
     inkscape:pageopacity="0.0"
     inkscape:pagecheckerboard="0"
     inkscape:document-units="mm"
     showgrid="false"
     inkscape:snap-page="true"
     inkscape:snap-bbox="true"
     inkscape:bbox-nodes="true"
     inkscape:snap-center="true"
     inkscape:snap-global="false"
     inkscape:object-paths="false"
     inkscape:snap-smooth-nodes="true"
     inkscape:zoom="3.2564103"
     inkscape:cx="184.09843"
     inkscape:cy="122.83465"
     inkscape:window-width="1920"
     inkscape:window-height="1015"
     inkscape:window-x="0"
     inkscape:window-y="0"
     inkscape:window-maximized="1"
     inkscape:current-layer="layer1" />
  <defs
     id="defs2">
    <marker
       style="overflow:visible;"
       id="Arrow2Lend"
       refX="0.0"
       refY="0.0"
       orient="auto"
       inkscape:stockid="Arrow2Lend"
       inkscape:isstock="true">
      <path
         transform="scale(1.1) rotate(180) translate(1,0)"
         d="M 8.7185878,4.0337352 L -2.2072895,0.016013256 L 8.7185884,-4.0017078 C 6.9730900,-1.6296469 6.9831476,1.6157441 8.7185878,4.0337352 z "
         style="stroke:context-stroke;fill-rule:evenodd;fill:context-stroke;stroke-width:0.62500000;stroke-linejoin:round;"
         id="path6036" />
    </marker>
    <linearGradient
       inkscape:collect="always"
       id="linearGradient5738">
      <stop
         style="stop-color:#268bd2;stop-opacity:0.59003985"
         offset="0"
         id="stop5734" />
      <stop
         style="stop-color:#268bd2;stop-opacity:0.2102209"
         offset="1"
         id="stop5736" />
    </linearGradient>
    <linearGradient
       inkscape:collect="always"
       id="linearGradient4288">
      <stop
         style="stop-color:#586e75;stop-opacity:1;"
         offset="0"
         id="stop4284" />
      <stop
         style="stop-color:#002b36;stop-opacity:1"
         offset="1"
         id="stop4286" />
    </linearGradient>
    <linearGradient
       inkscape:collect="always"
       id="linearGradient1468">
      <stop
         style="stop-color:#586e75;stop-opacity:1"
         offset="0"
         id="stop1464" />
      <stop
         style="stop-color:#002b36;stop-opacity:1"
         offset="1"
         id="stop1466" />
    </linearGradient>
    <filter
       style="color-interpolation-filters:sRGB;"
       inkscape:label="Drop Shadow"
       id="filter1444"
       x="-0.050958552"
       y="-0.050958552"
       width="1.1019171"
       height="1.1019171">
      <feFlood
         flood-opacity="1"
         flood-color="rgb(0,0,0)"
         result="flood"
         id="feFlood1434" />
      <feComposite
         in="SourceGraphic"
         in2="flood"
         operator="in"
         result="composite1"
         id="feComposite1436" />
      <feGaussianBlur
         in="composite1"
         stdDeviation="1"
         result="blur"
         id="feGaussianBlur1438" />
      <feOffset
         dx="0"
         dy="0"
         result="offset"
         id="feOffset1440" />
      <feComposite
         in="SourceGraphic"
         in2="offset"
         operator="over"
         result="composite2"
         id="feComposite1442" />
    </filter>
    <linearGradient
       inkscape:collect="always"
       xlink:href="#linearGradient1468"
       id="linearGradient1470"
       x1="14.061247"
       y1="9.4965191"
       x2="37.709797"
       y2="33.145069"
       gradientUnits="userSpaceOnUse" />
    <linearGradient
       inkscape:collect="always"
       xlink:href="#linearGradient1468"
       id="linearGradient2454"
       gradientUnits="userSpaceOnUse"
       gradientTransform="matrix(0.59927703,0,0,0.59927703,-60.308412,-53.008148)"
       x1="14.061247"
       y1="9.4965191"
       x2="37.709797"
       y2="33.145069" />
    <filter
       style="color-interpolation-filters:sRGB;"
       inkscape:label="Drop Shadow"
       id="filter4070"
       x="-0.018072802"
       y="-0.018072802"
       width="1.0474411"
       height="1.0474411">
      <feFlood
         flood-opacity="0.498039"
         flood-color="rgb(0,0,0)"
         result="flood"
         id="feFlood4060" />
      <feComposite
         in="flood"
         in2="SourceGraphic"
         operator="in"
         result="composite1"
         id="feComposite4062" />
      <feGaussianBlur
         in="composite1"
         stdDeviation="0.2"
         result="blur"
         id="feGaussianBlur4064" />
      <feOffset
         dx="0.3"
         dy="0.3"
         result="offset"
         id="feOffset4066" />
      <feComposite
         in="SourceGraphic"
         in2="offset"
         operator="over"
         result="composite2"
         id="feComposite4068" />
    </filter>
    <linearGradient
       inkscape:collect="always"
       xlink:href="#linearGradient4288"
       id="linearGradient4290"
       x1="24.309566"
       y1="19.744839"
       x2="37.709797"
       y2="33.145069"
       gradientUnits="userSpaceOnUse" />
    <linearGradient
       inkscape:collect="always"
       xlink:href="#linearGradient1468"
       id="linearGradient5398"
       gradientUnits="userSpaceOnUse"
       gradientTransform="matrix(0.32742017,0,0,0.32742017,-50.056745,-43.997434)"
       x1="14.061247"
       y1="9.4965191"
       x2="37.709797"
       y2="33.145069" />
    <radialGradient
       inkscape:collect="always"
       xlink:href="#linearGradient5738"
       id="radialGradient5740"
       cx="-37.709797"
       cy="-33.145069"
       fx="-37.709797"
       fy="-33.145069"
       r="7.7102699"
       gradientUnits="userSpaceOnUse" />
    <filter
       style="color-interpolation-filters:sRGB;"
       inkscape:label="Drop Shadow"
       id="filter20596"
       x="-0.0078073708"
       y="-0.0098909418"
       width="1.0144117"
       height="1.0215836">
      <feFlood
         flood-opacity="0.498039"
         flood-color="rgb(0,0,0)"
         result="flood"
         id="feFlood20586" />
      <feComposite
         in="flood"
         in2="SourceGraphic"
         operator="out"
         result="composite1"
         id="feComposite20588" />
      <feGaussianBlur
         in="composite1"
         stdDeviation="0.6"
         result="blur"
         id="feGaussianBlur20590" />
      <feOffset
         dx="-0.4"
         dy="0.4"
         result="offset"
         id="feOffset20592" />
      <feComposite
         in="offset"
         in2="SourceGraphic"
         operator="in"
         result="composite2"
         id="feComposite20594" />
    </filter>
    <filter
       style="color-interpolation-filters:sRGB;"
       inkscape:label="Drop Shadow"
       id="filter23007"
       x="-0.020189744"
       y="-0.030284537"
       width="1.0403795"
       height="1.0605691">
      <feFlood
         flood-opacity="0.501961"
         flood-color="rgb(206,92,0)"
         result="flood"
         id="feFlood22997" />
      <feComposite
         in="SourceGraphic"
         in2="flood"
         operator="copy"
         result="composite1"
         id="feComposite22999" />
      <feGaussianBlur
         in="composite1"
         stdDeviation="3.1"
         result="blur"
         id="feGaussianBlur23001" />
      <feOffset
         dx="-2.77556e-17"
         dy="2.77556e-17"
         result="offset"
         id="feOffset23003" />
      <feComposite
         in="SourceGraphic"
         in2="offset"
         operator="over"
         result="composite2"
         id="feComposite23005" />
    </filter>
    <clipPath
       clipPathUnits="userSpaceOnUse"
       id="clipPath23029">
      <rect
         style="fill:#002b36;fill-rule:evenodd;stroke:none;stroke-width:0.2;stroke-linejoin:bevel"
         id="rect23031"
         width="368.50394"
         height="245.6693"
         x="0"
         y="0" />
    </clipPath>
    <filter
       style="color-interpolation-filters:sRGB;"
       inkscape:label="Drop Shadow"
       id="filter24887"
       x="-0.015809122"
       y="-0.039041187"
       width="1.0316182"
       height="1.0780824">
      <feFlood
         flood-opacity="0.501961"
         flood-color="rgb(0,0,0)"
         result="flood"
         id="feFlood24877" />
      <feComposite
         in="SourceGraphic"
         in2="flood"
         operator="in"
         result="composite1"
         id="feComposite24879" />
      <feGaussianBlur
         in="composite1"
         stdDeviation="0.5"
         result="blur"
         id="feGaussianBlur24881" />
      <feOffset
         dx="-2.77556e-17"
         dy="2.77556e-17"
         result="offset"
         id="feOffset24883" />
      <feComposite
         in="offset"
         in2="offset"
         operator="atop"
         result="composite2"
         id="feComposite24885" />
    </filter>
  </defs>
  <g
     inkscape:label="Layer 1"
     inkscape:groupmode="layer"
     id="layer1">
    <path
       id="path20386"
       style="fill:#073642;fill-rule:evenodd;stroke:#cb4b16;stroke-width:1.51181;stroke-linejoin:bevel;stroke-miterlimit:4;stroke-dasharray:none;filter:url(#filter20596)"
       d="M 142.52539 14.267578 A 111.00587 111.00587 0 0 0 31.519531 125.27344 A 111.00587 111.00587 0 0 0 142.52539 236.2793 A 111.00587 111.00587 0 0 0 217.12891 207.42188 L 281.86523 207.42188 A 82.14923 82.14923 0 0 0 364.01367 125.27344 A 82.14923 82.14923 0 0 0 281.86523 43.123047 L 217.16992 43.123047 A 111.00587 111.00587 0 0 0 142.52539 14.267578 z "
       transform="scale(0.26458333)" />
    <rect
       style="fill:#002b36;fill-rule:evenodd;stroke:none;stroke-width:0.2;stroke-linejoin:bevel"
       id="rect846"
       width="97.5"
       height="65"
       x="0"
       y="0" />
    <circle
       style="fill:#268bd2;fill-rule:evenodd;stroke:none;stroke-width:0.197984;stroke-linejoin:bevel;filter:url(#filter1444)"
       id="circle1276"
       cx="37.709797"
       cy="33.145069"
       r="23.54855"
       transform="matrix(1.0101837,0,0,1.0101837,-0.38402401,-0.33753834)" />
    <circle
       style="fill:#073642;fill-rule:evenodd;stroke:url(#linearGradient1470);stroke-width:0.4;stroke-linejoin:bevel;stroke-miterlimit:4;stroke-dasharray:none"
       id="path1194"
       cx="37.709797"
       cy="33.145069"
       r="23.54855" />
    <circle
       style="fill:#073642;fill-rule:evenodd;stroke:url(#linearGradient2454);stroke-width:0.4;stroke-linejoin:bevel;stroke-miterlimit:4;stroke-dasharray:none"
       id="circle2430"
       cx="-37.709797"
       cy="-33.145069"
       r="14.112104"
       transform="scale(-1)" />
    <circle
       style="fill:#002b36;fill-rule:evenodd;stroke:none;stroke-width:0.388519;stroke-linejoin:bevel;stroke-miterlimit:4;stroke-dasharray:none;filter:url(#filter4070)"
       id="circle2434"
       cx="37.709797"
       cy="33.145069"
       r="13.279623"
       transform="matrix(1.0295493,0,0,1.0295493,-1.1202097,-0.98532497)" />
    <circle
       style="fill:url(#linearGradient4290);fill-rule:evenodd;stroke:none;stroke-width:0.4;stroke-linejoin:bevel;stroke-miterlimit:4;stroke-dasharray:none;stroke-opacity:1;fill-opacity:1"
       id="circle2952"
       cx="37.709797"
       cy="33.145069"
       r="13.400229" />
    <path
       sodipodi:type="star"
       style="fill:#586e75;fill-rule:evenodd;stroke:none;stroke-width:1.53782;stroke-linejoin:bevel;stroke-miterlimit:4;stroke-dasharray:none"
       id="path2870"
       inkscape:flatsided="false"
       sodipodi:sides="6"
       sodipodi:cx="142.52522"
       sodipodi:cy="125.2727"
       sodipodi:r1="51.437111"
       sodipodi:r2="51.437111"
       sodipodi:arg1="-1.5707963"
       sodipodi:arg2="-1.0471975"
       inkscape:rounded="0"
       inkscape:randomized="0"
       d="m 142.52522,73.835587 25.71856,6.891267 18.82729,18.827289 6.89126,25.718557 -6.89126,25.71855 -18.82729,18.82729 -25.71856,6.89127 -25.71855,-6.89127 -18.827293,-18.82729 -6.891265,-25.71856 6.891267,-25.718549 18.827291,-18.82729 z"
       transform="matrix(0.26010754,0,0,0.26010754,0.63791255,0.56069392)" />
    <circle
       style="fill:#002b36;fill-rule:evenodd;stroke:url(#linearGradient5398);stroke-width:0.4;stroke-linejoin:bevel;stroke-miterlimit:4;stroke-dasharray:none"
       id="circle5396"
       cx="-37.709797"
       cy="-33.145069"
       r="7.7102699"
       transform="scale(-1)" />
    <circle
       style="fill:url(#radialGradient5740);fill-rule:evenodd;stroke:none;stroke-width:0.4;stroke-linejoin:bevel;stroke-miterlimit:4;stroke-dasharray:none;fill-opacity:1"
       id="circle5714"
       cx="-37.709797"
       cy="-33.145069"
       r="7.7102699"
       transform="scale(-1)" />
    <circle
       style="fill:none;fill-rule:evenodd;stroke:none;stroke-width:0.4;stroke-linejoin:bevel;stroke-miterlimit:4;stroke-dasharray:none;stroke-opacity:1"
       id="circle19771"
       cx="-16.085108"
       cy="-47.559372"
       r="17.875738"
       transform="rotate(150)" />
    <path
       id="rect22274"
       style="fill:#cb4b16;fill-rule:evenodd;stroke:none;stroke-width:0.755906;stroke-linejoin:bevel;filter:url(#filter23007)"
       d="M 0 0 L 0 245.66992 L 368.50391 245.66992 L 368.50391 0 L 0 0 z M 142.52539 14.267578 A 111.00587 111.00587 0 0 1 217.16992 43.123047 L 281.86523 43.123047 A 82.149229 82.149229 0 0 1 364.01367 125.27344 A 82.149229 82.149229 0 0 1 281.86523 207.42188 L 217.12891 207.42188 A 111.00587 111.00587 0 0 1 142.52539 236.2793 A 111.00587 111.00587 0 0 1 31.519531 125.27344 A 111.00587 111.00587 0 0 1 142.52539 14.267578 z "
       transform="scale(0.26458333)"
       clip-path="url(#clipPath23029)" />
    <path
       id="path22497"
       style="fill:#002b36;fill-rule:evenodd;stroke:none;stroke-width:0.2;stroke-linejoin:bevel"
       d="M 0,0 V 65.000166 H 97.499991 V 0 Z M 37.709842,3.7749633 A 29.370303,29.370303 0 0 1 57.45954,11.409639 H 74.576841 A 21.735317,21.735317 0 0 1 96.311949,33.145264 21.735317,21.735317 0 0 1 74.576841,54.880372 H 57.44869 A 29.370303,29.370303 0 0 1 37.709842,62.515564 29.370303,29.370303 0 0 1 8.3395424,33.145264 29.370303,29.370303 0 0 1 37.709842,3.7749633 Z" />
    <g
       id="g24594">
      <path
         style="fill:none;stroke:#268bd2;stroke-width:0.265;stroke-linecap:butt;stroke-linejoin:miter;stroke-miterlimit:4;stroke-dasharray:none;stroke-opacity:1;marker-end:url(#Arrow2Lend)"
         d="m 64.910717,19.529754 h 2.359539"
         id="path24484"
         sodipodi:nodetypes="cc" />
      <g
         aria-label="case 2:"
         id="g24498"
         style="font-size:4.9389px;line-height:100%;letter-spacing:0px;word-spacing:0px;baseline-shift:baseline;vector-effect:none;fill:#268bd2;stroke-width:0.264583">
        <path
           d="m 72.492772,19.908528 q 0,0.5209 0.163987,0.771703 0.163987,0.250804 0.494372,0.250804 0.231511,0 0.385852,-0.125402 0.156752,-0.125402 0.192926,-0.385852 l 0.438906,0.02894 q -0.05064,0.376205 -0.320739,0.600482 -0.270096,0.224276 -0.684887,0.224276 -0.547427,0 -0.836815,-0.344855 -0.286977,-0.347266 -0.286977,-1.010449 0,-0.658359 0.289388,-1.003214 0.289389,-0.347266 0.829581,-0.347266 0.400321,0 0.663183,0.207395 0.265272,0.207395 0.332797,0.571543 l -0.446141,0.03376 q -0.03376,-0.217042 -0.171222,-0.344855 -0.13746,-0.127814 -0.390675,-0.127814 -0.344855,0 -0.499195,0.2291 -0.154341,0.229099 -0.154341,0.771703 z"
           id="path24486" />
        <path
           d="m 75.297431,21.273478 q -0.393087,0 -0.590835,-0.207395 -0.197749,-0.207396 -0.197749,-0.569131 0,-0.405145 0.265273,-0.622186 0.267684,-0.217042 0.860931,-0.231511 l 0.586012,-0.0096 v -0.142283 q 0,-0.318328 -0.135048,-0.455787 -0.135048,-0.13746 -0.424437,-0.13746 -0.2918,0 -0.424437,0.09887 -0.132636,0.09887 -0.159163,0.315916 l -0.453376,-0.041 q 0.110932,-0.704179 1.046622,-0.704179 0.491961,0 0.740353,0.226688 0.248392,0.224276 0.248392,0.651124 v 1.123793 q 0,0.192926 0.05064,0.2918 0.05064,0.09646 0.192926,0.09646 0.0627,0 0.142283,-0.01688 v 0.270096 q -0.163987,0.03859 -0.335209,0.03859 -0.241157,0 -0.352089,-0.125402 -0.108521,-0.127813 -0.122991,-0.397909 h -0.01447 q -0.166399,0.299035 -0.388263,0.424437 -0.219453,0.12299 -0.535369,0.12299 z m 0.09887,-0.325562 q 0.238746,0 0.424437,-0.108521 0.185691,-0.108521 0.2918,-0.296624 0.108521,-0.190514 0.108521,-0.390674 v -0.21463 l -0.47508,0.0096 q -0.306269,0.0048 -0.465433,0.0627 -0.156752,0.05788 -0.241157,0.178456 -0.08441,0.120579 -0.08441,0.315916 0,0.212219 0.113344,0.327974 0.115756,0.115756 0.327974,0.115756 z"
           id="path24488" />
        <path
           d="m 79.336814,20.504186 q 0,0.368971 -0.279742,0.569131 -0.277331,0.200161 -0.778938,0.200161 -0.487137,0 -0.75241,-0.159164 -0.262862,-0.161575 -0.342444,-0.501607 l 0.38344,-0.07476 q 0.05547,0.209807 0.2291,0.308682 0.173633,0.09646 0.482314,0.09646 0.330386,0 0.482315,-0.101286 0.15434,-0.101286 0.15434,-0.303858 0,-0.15434 -0.106109,-0.250803 -0.106109,-0.09646 -0.342443,-0.159164 l -0.311093,-0.08199 q -0.373794,-0.09646 -0.532958,-0.188103 -0.156752,-0.09405 -0.24598,-0.226688 -0.08923,-0.132636 -0.08923,-0.325562 0,-0.356913 0.253215,-0.542604 0.255627,-0.188102 0.742764,-0.188102 0.431672,0 0.684887,0.151929 0.255626,0.151929 0.32315,0.487137 l -0.390674,0.04823 q -0.03617,-0.173634 -0.195338,-0.265273 -0.156752,-0.09405 -0.422025,-0.09405 -0.294212,0 -0.434083,0.08923 -0.139871,0.08923 -0.139871,0.270096 0,0.110932 0.05788,0.183279 0.05788,0.07235 0.171221,0.12299 0.113344,0.05064 0.477492,0.139871 0.344855,0.08682 0.496784,0.161576 0.151929,0.07235 0.238745,0.161575 0.08923,0.08923 0.13746,0.207395 0.04823,0.115756 0.04823,0.265273 z"
           id="path24490" />
        <path
           d="m 80.180865,20.012226 q 0,0.448552 0.185691,0.692121 0.185691,0.243569 0.542603,0.243569 0.282154,0 0.450964,-0.113344 0.171222,-0.113344 0.231511,-0.286977 l 0.381029,0.10852 q -0.233923,0.617363 -1.063504,0.617363 -0.578777,0 -0.882635,-0.344855 -0.301447,-0.344855 -0.301447,-1.024918 0,-0.646302 0.301447,-0.991156 0.303858,-0.344855 0.865754,-0.344855 1.15032,0 1.15032,1.386654 v 0.05788 z m 1.413181,-0.332797 q -0.03617,-0.412379 -0.209807,-0.600482 -0.173633,-0.190514 -0.499195,-0.190514 -0.315916,0 -0.501607,0.212218 -0.18328,0.209807 -0.197749,0.578778 z"
           id="path24492" />
        <path
           d="m 83.882628,21.225246 v -0.306269 q 0.12299,-0.282154 0.299035,-0.496784 0.178457,-0.217042 0.373794,-0.390675 0.195337,-0.176045 0.385852,-0.325562 0.192925,-0.149518 0.347266,-0.299035 0.154341,-0.149518 0.248392,-0.313504 0.09646,-0.163987 0.09646,-0.371383 0,-0.279742 -0.163987,-0.434083 -0.163987,-0.15434 -0.455787,-0.15434 -0.277331,0 -0.458199,0.151929 -0.178456,0.149517 -0.209807,0.422025 l -0.443729,-0.041 q 0.04823,-0.407555 0.344855,-0.648713 0.299035,-0.241157 0.76688,-0.241157 0.513665,0 0.788584,0.243569 0.277331,0.241157 0.277331,0.687298 0,0.197749 -0.09164,0.393086 -0.08923,0.195338 -0.267685,0.390675 -0.178456,0.195337 -0.682475,0.605305 -0.27733,0.226687 -0.441317,0.409967 -0.163987,0.180868 -0.236334,0.349678 h 1.772505 v 0.36897 z"
           id="path24494" />
        <path
           d="m 86.831981,19.115121 v -0.499196 h 0.470256 v 0.499196 z m 0,2.110125 v -0.499195 h 0.470256 v 0.499195 z"
           id="path24496" />
      </g>
      <path
         style="fill:none;stroke:#268bd2;stroke-width:0.265;stroke-linecap:butt;stroke-linejoin:miter;stroke-miterlimit:4;stroke-dasharray:none;stroke-opacity:1;marker-end:url(#Arrow2Lend)"
         d="m 69.895974,28.164475 h 2.359539"
         id="path24500"
         sodipodi:nodetypes="cc" />
      <g
         aria-label="case 3:"
         id="g24514"
         style="font-size:4.9389px;line-height:100%;letter-spacing:0px;word-spacing:0px;baseline-shift:baseline;vector-effect:none;fill:#268bd2;stroke-width:0.264583">
        <path
           d="m 77.478032,28.54325 q 0,0.520899 0.163987,0.771703 0.163987,0.250803 0.494372,0.250803 0.231511,0 0.385852,-0.125401 0.156752,-0.125402 0.192926,-0.385852 l 0.438906,0.02894 q -0.05064,0.376205 -0.320739,0.600481 -0.270096,0.224277 -0.684887,0.224277 -0.547427,0 -0.836815,-0.344855 -0.286977,-0.347267 -0.286977,-1.010449 0,-0.658359 0.289388,-1.003214 0.289389,-0.347266 0.829581,-0.347266 0.400321,0 0.663183,0.207395 0.265272,0.207395 0.332797,0.571542 l -0.446141,0.03376 q -0.03376,-0.217041 -0.171222,-0.344854 -0.13746,-0.127814 -0.390675,-0.127814 -0.344855,0 -0.499195,0.2291 -0.154341,0.229099 -0.154341,0.771703 z"
           id="path24502" />
        <path
           d="m 80.282691,29.9082 q -0.393087,0 -0.590835,-0.207396 -0.197749,-0.207395 -0.197749,-0.569131 0,-0.405144 0.265273,-0.622185 0.267684,-0.217042 0.860931,-0.231511 l 0.586012,-0.0096 v -0.142282 q 0,-0.318328 -0.135048,-0.455787 -0.135048,-0.13746 -0.424437,-0.13746 -0.2918,0 -0.424437,0.09887 -0.132636,0.09887 -0.159163,0.315916 l -0.453376,-0.041 q 0.110932,-0.704179 1.046622,-0.704179 0.491961,0 0.740353,0.226687 0.248392,0.224277 0.248392,0.651125 v 1.123793 q 0,0.192925 0.05064,0.2918 0.05064,0.09646 0.192926,0.09646 0.0627,0 0.142283,-0.01688 v 0.270096 q -0.163987,0.03859 -0.335209,0.03859 -0.241157,0 -0.352089,-0.125402 -0.108521,-0.127813 -0.122991,-0.397909 h -0.01447 Q 81.039924,29.659808 80.81806,29.785209 80.598607,29.9082 80.282691,29.9082 Z m 0.09887,-0.325563 q 0.238746,0 0.424437,-0.10852 0.185691,-0.108521 0.2918,-0.296624 0.108521,-0.190514 0.108521,-0.390674 v -0.21463 l -0.47508,0.0096 q -0.306269,0.0048 -0.465433,0.0627 -0.156752,0.05788 -0.241157,0.178456 -0.08441,0.120579 -0.08441,0.315916 0,0.212218 0.113343,0.327974 0.115756,0.115755 0.327974,0.115755 z"
           id="path24504" />
        <path
           d="m 84.322074,29.138908 q 0,0.368971 -0.279742,0.569131 -0.277331,0.200161 -0.778938,0.200161 -0.487137,0 -0.75241,-0.159164 -0.262862,-0.161575 -0.342444,-0.501607 l 0.38344,-0.07476 q 0.05547,0.209807 0.2291,0.308681 0.173633,0.09646 0.482314,0.09646 0.330386,0 0.482315,-0.101286 0.15434,-0.101286 0.15434,-0.303858 0,-0.154341 -0.106109,-0.250803 -0.106109,-0.09646 -0.342443,-0.159164 l -0.311093,-0.08199 q -0.373794,-0.09646 -0.532958,-0.188102 -0.156752,-0.09405 -0.24598,-0.226688 -0.08923,-0.132637 -0.08923,-0.325562 0,-0.356913 0.253215,-0.542604 0.255627,-0.188103 0.742764,-0.188103 0.431672,0 0.684887,0.151929 0.255626,0.151929 0.32315,0.487138 l -0.390674,0.04823 q -0.03617,-0.173633 -0.195338,-0.265273 -0.156752,-0.09405 -0.422025,-0.09405 -0.294212,0 -0.434083,0.08923 -0.139871,0.08923 -0.139871,0.270096 0,0.110933 0.05788,0.18328 0.05788,0.07235 0.171221,0.12299 0.113344,0.05064 0.477492,0.139871 0.344855,0.08682 0.496784,0.161576 0.151929,0.07235 0.238745,0.161575 0.08923,0.08923 0.13746,0.207395 0.04823,0.115756 0.04823,0.265273 z"
           id="path24506" />
        <path
           d="m 85.166125,28.646947 q 0,0.448553 0.185691,0.692122 0.185691,0.243568 0.542603,0.243568 0.282154,0 0.450965,-0.113344 0.171221,-0.113343 0.23151,-0.286977 l 0.381029,0.108521 Q 86.724,29.9082 85.894419,29.9082 q -0.578777,0 -0.882635,-0.344855 -0.301446,-0.344855 -0.301446,-1.024918 0,-0.646302 0.301446,-0.991157 0.303858,-0.344854 0.865754,-0.344854 1.15032,0 1.15032,1.386654 v 0.05788 z m 1.413181,-0.332797 q -0.03617,-0.412378 -0.209807,-0.600481 -0.173633,-0.190514 -0.499195,-0.190514 -0.315916,0 -0.501607,0.212218 -0.18328,0.209807 -0.197749,0.578777 z"
           id="path24508" />
        <path
           d="m 91.149236,28.921867 q 0,0.470256 -0.299035,0.728294 -0.299035,0.258039 -0.853697,0.258039 -0.516076,0 -0.824758,-0.231511 -0.306269,-0.233923 -0.364147,-0.68971 l 0.448552,-0.041 q 0.08682,0.602893 0.740353,0.602893 0.327974,0 0.513665,-0.161575 0.188103,-0.161575 0.188103,-0.479903 0,-0.277331 -0.21463,-0.431671 -0.212219,-0.156752 -0.614951,-0.156752 H 89.62271 v -0.376206 h 0.236334 q 0.356913,0 0.552251,-0.15434 0.197748,-0.156753 0.197748,-0.431672 0,-0.272507 -0.161575,-0.42926 -0.159164,-0.159163 -0.47508,-0.159163 -0.286977,0 -0.465433,0.147105 -0.176045,0.147106 -0.204984,0.414791 l -0.436494,-0.03376 q 0.04823,-0.417202 0.344855,-0.651125 0.299035,-0.233922 0.76688,-0.233922 0.511253,0 0.793407,0.238746 0.284565,0.236334 0.284565,0.66077 0,0.325563 -0.183279,0.530546 -0.180868,0.202572 -0.528134,0.274919 v 0.0096 q 0.381028,0.041 0.593246,0.255626 0.212219,0.21463 0.212219,0.540193 z"
           id="path24510" />
        <path
           d="m 91.817241,27.749842 v -0.499195 h 0.470256 v 0.499195 z m 0,2.110126 v -0.499195 h 0.470256 v 0.499195 z"
           id="path24512" />
      </g>
      <path
         style="fill:none;stroke:#268bd2;stroke-width:0.265;stroke-linecap:butt;stroke-linejoin:miter;stroke-miterlimit:4;stroke-dasharray:none;stroke-opacity:1;marker-end:url(#Arrow2Lend)"
         d="m 69.895977,38.134988 h 2.359539"
         id="path24516"
         sodipodi:nodetypes="cc" />
      <g
         aria-label="case 5:"
         id="g24530"
         style="font-size:4.9389px;line-height:100%;letter-spacing:0px;word-spacing:0px;baseline-shift:baseline;vector-effect:none;fill:#268bd2;stroke-width:0.264583">
        <path
           d="m 77.478032,38.513764 q 0,0.5209 0.163987,0.771703 0.163987,0.250804 0.494372,0.250804 0.231511,0 0.385852,-0.125402 0.156752,-0.125402 0.192926,-0.385852 l 0.438906,0.02894 q -0.05064,0.376205 -0.320739,0.600482 -0.270096,0.224276 -0.684887,0.224276 -0.547427,0 -0.836815,-0.344855 -0.286977,-0.347266 -0.286977,-1.010449 0,-0.658359 0.289388,-1.003214 0.289389,-0.347266 0.829581,-0.347266 0.400321,0 0.663183,0.207395 0.265272,0.207395 0.332797,0.571543 l -0.446141,0.03376 q -0.03376,-0.217042 -0.171222,-0.344855 -0.13746,-0.127813 -0.390675,-0.127813 -0.344855,0 -0.499195,0.229099 -0.154341,0.229099 -0.154341,0.771703 z"
           id="path24518" />
        <path
           d="m 80.282691,39.878714 q -0.393087,0 -0.590835,-0.207395 -0.197749,-0.207396 -0.197749,-0.569131 0,-0.405144 0.265273,-0.622186 0.267684,-0.217041 0.860931,-0.231511 l 0.586012,-0.0096 v -0.142283 q 0,-0.318328 -0.135048,-0.455787 -0.135048,-0.13746 -0.424437,-0.13746 -0.2918,0 -0.424437,0.09887 -0.132636,0.09887 -0.159163,0.315916 l -0.453376,-0.041 q 0.110932,-0.704179 1.046622,-0.704179 0.491961,0 0.740353,0.226688 0.248392,0.224276 0.248392,0.651124 v 1.123793 q 0,0.192926 0.05064,0.2918 0.05064,0.09646 0.192926,0.09646 0.0627,0 0.142283,-0.01688 v 0.270096 q -0.163987,0.03859 -0.335209,0.03859 -0.241157,0 -0.352089,-0.125402 -0.108521,-0.127813 -0.122991,-0.397909 h -0.01447 q -0.166399,0.299035 -0.388263,0.424437 -0.219453,0.12299 -0.535369,0.12299 z m 0.09887,-0.325562 q 0.238746,0 0.424437,-0.108521 0.185691,-0.108521 0.2918,-0.296623 0.108521,-0.190515 0.108521,-0.390675 v -0.21463 l -0.47508,0.0096 q -0.306269,0.0048 -0.465433,0.0627 -0.156752,0.05788 -0.241157,0.178456 -0.08441,0.120579 -0.08441,0.315916 0,0.212219 0.113343,0.327974 0.115756,0.115756 0.327974,0.115756 z"
           id="path24520" />
        <path
           d="m 84.322074,39.109422 q 0,0.368971 -0.279742,0.569131 -0.277331,0.200161 -0.778938,0.200161 -0.487137,0 -0.75241,-0.159164 -0.262862,-0.161575 -0.342444,-0.501607 l 0.38344,-0.07476 q 0.05547,0.209807 0.2291,0.308682 0.173633,0.09646 0.482314,0.09646 0.330386,0 0.482315,-0.101287 0.15434,-0.101286 0.15434,-0.303858 0,-0.15434 -0.106109,-0.250803 -0.106109,-0.09646 -0.342443,-0.159164 l -0.311093,-0.08199 q -0.373794,-0.09646 -0.532958,-0.188103 -0.156752,-0.09405 -0.24598,-0.226688 -0.08923,-0.132636 -0.08923,-0.325562 0,-0.356913 0.253215,-0.542604 0.255627,-0.188102 0.742764,-0.188102 0.431672,0 0.684887,0.151929 0.255626,0.151929 0.32315,0.487137 l -0.390674,0.04823 q -0.03617,-0.173634 -0.195338,-0.265273 -0.156752,-0.09405 -0.422025,-0.09405 -0.294212,0 -0.434083,0.08923 -0.139871,0.08923 -0.139871,0.270096 0,0.110932 0.05788,0.183279 0.05788,0.07235 0.171221,0.12299 0.113344,0.05064 0.477492,0.139872 0.344855,0.08682 0.496784,0.161575 0.151929,0.07235 0.238745,0.161575 0.08923,0.08923 0.13746,0.207395 0.04823,0.115756 0.04823,0.265273 z"
           id="path24522" />
        <path
           d="m 85.166125,38.617462 q 0,0.448552 0.185691,0.692121 0.185691,0.243569 0.542603,0.243569 0.282154,0 0.450965,-0.113344 0.171221,-0.113344 0.23151,-0.286977 l 0.381029,0.10852 q -0.233923,0.617363 -1.063504,0.617363 -0.578777,0 -0.882635,-0.344855 -0.301446,-0.344855 -0.301446,-1.024918 0,-0.646301 0.301446,-0.991156 0.303858,-0.344855 0.865754,-0.344855 1.15032,0 1.15032,1.386654 v 0.05788 z m 1.413181,-0.332797 q -0.03617,-0.412379 -0.209807,-0.600482 -0.173633,-0.190514 -0.499195,-0.190514 -0.315916,0 -0.501607,0.212218 -0.18328,0.209807 -0.197749,0.578778 z"
           id="path24524" />
        <path
           d="m 91.158882,38.723571 q 0,0.53778 -0.320739,0.846462 -0.318328,0.308681 -0.885047,0.308681 -0.47508,0 -0.76688,-0.207395 -0.2918,-0.207396 -0.368971,-0.600482 l 0.438906,-0.05064 q 0.13746,0.504019 0.706591,0.504019 0.349678,0 0.547427,-0.209807 0.197749,-0.212218 0.197749,-0.581189 0,-0.320739 -0.200161,-0.518488 -0.197748,-0.197749 -0.535369,-0.197749 -0.176044,0 -0.327973,0.05547 -0.151929,0.05547 -0.303859,0.188103 H 88.91612 l 0.113344,-1.827972 h 1.931669 v 0.368971 h -1.536172 l -0.06511,1.077973 q 0.282154,-0.217042 0.701768,-0.217042 0.501607,0 0.79823,0.294212 0.299035,0.294212 0.299035,0.76688 z"
           id="path24526" />
        <path
           d="m 91.817241,37.720357 v -0.499196 h 0.470256 v 0.499196 z m 0,2.110125 v -0.499195 h 0.470256 v 0.499195 z"
           id="path24528" />
      </g>
      <path
         style="fill:none;stroke:#268bd2;stroke-width:0.265;stroke-linecap:butt;stroke-linejoin:miter;stroke-miterlimit:4;stroke-dasharray:none;stroke-opacity:1;marker-end:url(#Arrow2Lend)"
         d="m 64.91072,46.769709 h 2.359539"
         id="path24532"
         sodipodi:nodetypes="cc" />
      <g
         aria-label="default:"
         id="g24550"
         style="font-size:4.9389px;line-height:100%;letter-spacing:0px;word-spacing:0px;baseline-shift:baseline;vector-effect:none;fill:#268bd2;stroke-width:0.264583">
        <path
           d="m 73.809491,48.045589 q -0.120579,0.250803 -0.320739,0.359324 -0.197749,0.108521 -0.491961,0.108521 -0.494372,0 -0.728295,-0.332797 -0.231511,-0.332797 -0.231511,-1.008037 0,-1.36495 0.959806,-1.36495 0.296623,0 0.494372,0.10852 0.197749,0.108521 0.318328,0.344855 h 0.0048 l -0.0048,-0.2918 v -1.082796 h 0.434083 v 3.040993 q 0,0.407555 0.01447,0.53778 h -0.41479 q -0.0072,-0.03858 -0.01688,-0.178456 -0.0072,-0.139871 -0.0072,-0.241157 z M 72.492772,47.15813 q 0,0.547427 0.144695,0.783761 0.144694,0.236334 0.470256,0.236334 0.368971,0 0.535369,-0.255626 0.166399,-0.255627 0.166399,-0.793408 0,-0.518488 -0.166399,-0.759645 -0.166398,-0.241157 -0.530546,-0.241157 -0.327974,0 -0.475079,0.243569 -0.144695,0.241157 -0.144695,0.786172 z"
           id="path24534" />
        <path
           d="m 75.241965,47.252181 q 0,0.448553 0.185691,0.692122 0.185691,0.243569 0.542603,0.243569 0.282154,0 0.450964,-0.113344 0.171222,-0.113344 0.231511,-0.286977 l 0.381029,0.10852 q -0.233923,0.617363 -1.063504,0.617363 -0.578777,0 -0.882635,-0.344855 -0.301446,-0.344855 -0.301446,-1.024918 0,-0.646302 0.301446,-0.991156 0.303858,-0.344855 0.865754,-0.344855 1.15032,0 1.15032,1.386654 v 0.05788 z m 1.413181,-0.332796 q -0.03617,-0.412379 -0.209807,-0.600482 -0.173633,-0.190514 -0.499195,-0.190514 -0.315916,0 -0.501607,0.212218 -0.18328,0.209807 -0.197749,0.578778 z"
           id="path24536" />
        <path
           d="m 78.193729,46.171797 v 2.293405 h -0.434083 v -2.293405 h -0.366559 v -0.315916 h 0.366559 v -0.294212 q 0,-0.356912 0.156752,-0.513665 0.156753,-0.156752 0.479903,-0.156752 0.180868,0 0.30627,0.02894 v 0.330386 q -0.108521,-0.01929 -0.192926,-0.01929 -0.166398,0 -0.241157,0.0844 -0.07476,0.08441 -0.07476,0.30627 v 0.233922 h 0.508842 v 0.315916 z"
           id="path24538" />
        <path
           d="m 79.693727,48.513434 q -0.393086,0 -0.590835,-0.207395 -0.197749,-0.207396 -0.197749,-0.569131 0,-0.405145 0.265273,-0.622186 0.267685,-0.217042 0.860931,-0.231511 l 0.586012,-0.0096 v -0.142283 q 0,-0.318328 -0.135048,-0.455787 -0.135048,-0.13746 -0.424436,-0.13746 -0.291801,0 -0.424437,0.09887 -0.132637,0.09887 -0.159164,0.315916 l -0.453375,-0.041 q 0.110932,-0.704179 1.046622,-0.704179 0.491961,0 0.740353,0.226687 0.248392,0.224277 0.248392,0.651125 v 1.123793 q 0,0.192925 0.05064,0.2918 0.05064,0.09646 0.192925,0.09646 0.0627,0 0.142283,-0.01688 v 0.270096 q -0.163987,0.03858 -0.335208,0.03858 -0.241158,0 -0.35209,-0.125402 -0.108521,-0.127813 -0.12299,-0.397909 h -0.01447 q -0.166398,0.299035 -0.388263,0.424437 -0.219453,0.12299 -0.535369,0.12299 z m 0.09888,-0.325562 q 0.238745,0 0.424436,-0.108521 0.185692,-0.108521 0.291801,-0.296624 0.10852,-0.190514 0.10852,-0.390674 v -0.21463 l -0.475079,0.0096 q -0.30627,0.0048 -0.465434,0.0627 -0.156752,0.05788 -0.241157,0.178456 -0.0844,0.120579 -0.0844,0.315916 0,0.212219 0.113344,0.327974 0.115755,0.115756 0.327974,0.115756 z"
           id="path24540" />
        <path
           d="m 82.19935,45.855881 v 1.654339 q 0,0.258038 0.05064,0.400321 0.05064,0.142282 0.161576,0.204983 0.110932,0.0627 0.325562,0.0627 0.313504,0 0.494372,-0.21463 0.180868,-0.21463 0.180868,-0.595658 v -1.512056 h 0.434083 v 2.052248 q 0,0.455787 0.01447,0.557073 h -0.409968 q -0.0024,-0.01206 -0.0048,-0.06511 -0.0024,-0.05306 -0.0072,-0.120579 -0.0024,-0.06994 -0.0072,-0.26045 h -0.0072 q -0.149517,0.270097 -0.347266,0.38344 -0.195338,0.110933 -0.487138,0.110933 -0.42926,0 -0.62942,-0.212219 -0.197749,-0.21463 -0.197749,-0.70659 v -1.738744 z"
           id="path24542" />
        <path
           d="m 84.521695,48.465202 v -3.578773 h 0.434083 v 3.578773 z"
           id="path24544" />
        <path
           d="m 86.622174,48.44591 q -0.21463,0.05788 -0.438906,0.05788 -0.520899,0 -0.520899,-0.590835 v -1.741155 h -0.301447 v -0.315916 h 0.318328 l 0.127813,-0.5836 h 0.289389 v 0.5836 h 0.482314 v 0.315916 h -0.482314 v 1.647104 q 0,0.188103 0.06029,0.265273 0.0627,0.07476 0.21463,0.07476 0.08682,0 0.250803,-0.03376 z"
           id="path24546" />
        <path
           d="m 87.109312,46.355077 v -0.499196 h 0.470257 v 0.499196 z m 0,2.110125 v -0.499195 h 0.470257 v 0.499195 z"
           id="path24548" />
      </g>
      <circle
         id="circle24552"
         style="fill:#268bd2;stroke:none;stroke-width:0.264583"
         cx="45.071987"
         cy="25.782879"
         r="0.97098547" />
      <g
         aria-label="2"
         id="g24556"
         style="font-size:4.9389px;line-height:100%;letter-spacing:0px;word-spacing:0px;baseline-shift:baseline;vector-effect:none;fill:#268bd2;stroke-width:0.264583">
        <path
           d="m 50.204778,21.249361 v -0.30627 q 0.12299,-0.282154 0.299035,-0.496784 0.178457,-0.217041 0.373794,-0.390674 0.195337,-0.176045 0.385852,-0.325562 0.192925,-0.149518 0.347266,-0.299035 0.154341,-0.149518 0.248392,-0.313505 0.09646,-0.163987 0.09646,-0.371382 0,-0.279742 -0.163987,-0.434083 -0.163987,-0.154341 -0.455787,-0.154341 -0.277331,0 -0.458199,0.151929 -0.178456,0.149518 -0.209807,0.422026 l -0.443729,-0.041 q 0.04823,-0.407556 0.344855,-0.648713 0.299035,-0.241157 0.76688,-0.241157 0.513665,0 0.788584,0.243569 0.277331,0.241157 0.277331,0.687298 0,0.197749 -0.09164,0.393086 -0.08923,0.195337 -0.267685,0.390675 -0.178456,0.195337 -0.682475,0.605304 -0.27733,0.226688 -0.441317,0.409968 -0.163987,0.180867 -0.236334,0.349677 h 1.772505 v 0.368971 z"
           style="text-align:center;text-anchor:middle"
           id="path24554" />
      </g>
      <g
         aria-label="3"
         id="g24560"
         style="font-size:4.9389px;line-height:100%;letter-spacing:0px;word-spacing:0px;baseline-shift:baseline;vector-effect:none;fill:#268bd2;stroke-width:0.264583">
        <path
           d="m 57.471382,28.945981 q 0,0.470257 -0.299035,0.728295 -0.299035,0.258038 -0.853697,0.258038 -0.516076,0 -0.824757,-0.231511 -0.30627,-0.233922 -0.364148,-0.689709 l 0.448553,-0.041 q 0.08682,0.602893 0.740352,0.602893 0.327974,0 0.513665,-0.161575 0.188103,-0.161576 0.188103,-0.479903 0,-0.277331 -0.21463,-0.431672 -0.212218,-0.156752 -0.614951,-0.156752 h -0.24598 v -0.376205 h 0.236334 q 0.356912,0 0.55225,-0.154341 0.197749,-0.156752 0.197749,-0.431671 0,-0.272508 -0.161576,-0.42926 -0.159163,-0.159164 -0.475079,-0.159164 -0.286978,0 -0.465434,0.147106 -0.176045,0.147106 -0.204983,0.41479 l -0.436495,-0.03376 q 0.04823,-0.417202 0.344855,-0.651124 0.299035,-0.233923 0.76688,-0.233923 0.511253,0 0.793407,0.238746 0.284566,0.236334 0.284566,0.660771 0,0.325562 -0.18328,0.530546 -0.180868,0.202572 -0.528134,0.274919 v 0.0096 q 0.381028,0.041 0.593246,0.255627 0.212219,0.21463 0.212219,0.540192 z"
           style="text-align:center;text-anchor:middle"
           id="path24558" />
      </g>
      <g
         aria-label="5"
         id="g24564"
         style="font-size:4.9389px;line-height:100%;letter-spacing:0px;word-spacing:0px;baseline-shift:baseline;vector-effect:none;fill:#268bd2;stroke-width:0.264583">
        <path
           d="m 57.481032,38.747684 q 0,0.53778 -0.320739,0.846461 -0.318328,0.308682 -0.885047,0.308682 -0.47508,0 -0.76688,-0.207396 -0.2918,-0.207395 -0.368971,-0.600481 l 0.438906,-0.05064 q 0.13746,0.504019 0.706591,0.504019 0.349678,0 0.547427,-0.209807 0.197749,-0.212219 0.197749,-0.581189 0,-0.320739 -0.200161,-0.518488 -0.197748,-0.197749 -0.535369,-0.197749 -0.176044,0 -0.327973,0.05547 -0.151929,0.05547 -0.303859,0.188103 H 55.23827 l 0.113344,-1.827972 h 1.931669 v 0.36897 h -1.536171 l -0.06511,1.077973 q 0.282154,-0.217041 0.701768,-0.217041 0.501607,0 0.79823,0.294212 0.299035,0.294211 0.299035,0.76688 z"
           style="text-align:center;text-anchor:middle"
           id="path24562" />
      </g>
      <g
         aria-label="?"
         id="g24568"
         style="font-size:4.9389px;line-height:100%;letter-spacing:0px;word-spacing:0px;baseline-shift:baseline;vector-effect:none;fill:#268bd2;stroke-width:0.264583">
        <path
           d="m 52.519888,46.000572 q 0,0.180868 -0.05306,0.323151 -0.05306,0.142283 -0.151929,0.262862 -0.09887,0.120578 -0.323151,0.284565 l -0.192925,0.142283 q -0.173634,0.125402 -0.258039,0.265273 -0.0844,0.137459 -0.08682,0.301446 h -0.422025 q 0.0048,-0.166398 0.05064,-0.2918 0.04823,-0.125402 0.12299,-0.221865 0.07476,-0.09646 0.16881,-0.171221 0.09405,-0.07717 0.190514,-0.144695 0.09646,-0.06994 0.188103,-0.137459 0.09405,-0.06994 0.166398,-0.154341 0.07235,-0.0844 0.115756,-0.190514 0.04582,-0.106109 0.04582,-0.248392 0,-0.274919 -0.188103,-0.434083 -0.185691,-0.159164 -0.523311,-0.159164 -0.33762,0 -0.535369,0.16881 -0.197749,0.16881 -0.231511,0.463022 l -0.44373,-0.02894 q 0.0627,-0.477491 0.376206,-0.733118 0.313504,-0.255626 0.829581,-0.255626 0.53778,0 0.846461,0.255626 0.308682,0.253215 0.308682,0.704179 z m -1.507233,2.488743 v -0.484726 h 0.470257 v 0.484726 z"
           style="text-align:center;text-anchor:middle"
           id="path24566" />
      </g>
      <g
         aria-label="X"
         id="g24572"
         style="font-size:4.9389px;line-height:100%;letter-spacing:0px;word-spacing:0px;baseline-shift:baseline;vector-effect:none;fill:#268bd2;stroke-width:0.264583">
        <path
           d="m 38.758831,34.845226 -1.020096,-1.485528 -1.041799,1.485528 h -0.508841 l 1.292602,-1.765271 -1.193728,-1.632634 h 0.508842 l 0.945336,1.333599 0.918809,-1.333599 h 0.508842 l -1.162378,1.615753 1.261252,1.782152 z"
           style="text-align:center;text-anchor:middle"
           id="path24570" />
      </g>
      <g
         aria-label="switch(X)"
         id="g24592"
         style="font-size:4.9389px;line-height:100%;letter-spacing:0px;word-spacing:0px;baseline-shift:baseline;vector-effect:none;fill:#268bd2;stroke-width:0.264583">
        <path
           d="m 20.536093,40.361768 q 0.331367,-0.162282 0.634165,9.15e-4 0.301737,0.161031 0.522356,0.611517 0.214254,0.437491 0.187985,0.745732 -0.0295,0.307136 -0.299871,0.528161 l -0.235786,-0.311481 q 0.164029,-0.142091 0.176459,-0.341515 0.01026,-0.198364 -0.125501,-0.475586 -0.145311,-0.296714 -0.303097,-0.388611 -0.158846,-0.09406 -0.340773,-0.005 -0.13861,0.06788 -0.178573,0.205604 -0.03996,0.137721 0.0077,0.377547 l 0.06319,0.31545 q 0.07777,0.378125 0.06547,0.561373 -0.01552,0.182142 -0.0954,0.320613 -0.07987,0.138471 -0.253138,0.223324 -0.320538,0.156979 -0.598674,0.01124 -0.281363,-0.146843 -0.495617,-0.584334 -0.189859,-0.387677 -0.164784,-0.681907 0.02401,-0.296397 0.295362,-0.504471 l 0.215144,0.329645 q -0.140028,0.108855 -0.152324,0.292103 -0.01552,0.182142 0.10115,0.42038 0.129401,0.264227 0.271054,0.350599 0.141653,0.08637 0.304088,0.0068 0.09963,-0.04879 0.139145,-0.132589 0.03952,-0.0838 0.03515,-0.207866 -0.0044,-0.124066 -0.0844,-0.490346 -0.07371,-0.347893 -0.07339,-0.517218 -0.0018,-0.168265 0.0401,-0.285479 0.04089,-0.119379 0.125801,-0.214667 0.08275,-0.09423 0.217024,-0.159989 z"
           id="path24574" />
        <path
           d="m 20.258625,37.178962 0.142411,0.483481 -1.640895,0.958482 -0.366418,0.198435 q 0.110231,-0.0098 0.319809,-0.02381 0.207264,-0.01328 1.998902,-0.07593 l 0.14173,0.481167 -2.296534,1.438201 -0.121288,-0.411768 1.575584,-0.92416 q 0.05075,-0.03255 0.428735,-0.234389 l -0.182769,0.0111 -2.141124,0.06251 -0.13151,-0.446468 1.590003,-0.943491 0.408184,-0.235877 -0.342673,0.023 -1.97645,0.0668 -0.119926,-0.407142 z"
           id="path24576" />
        <path
           d="m 16.952056,36.614632 -0.409814,0.06406 -0.06704,-0.428875 0.409814,-0.06406 z m 3.126023,-0.488638 -2.578016,0.402977 -0.06704,-0.428875 2.578016,-0.402977 z"
           id="path24578" />
        <path
           d="m 19.821459,34.038893 q 0.07601,0.208898 0.09518,0.432353 0.04452,0.518994 -0.544152,0.569492 l -1.734784,0.148815 0.02576,0.300344 -0.31476,0.027 -0.02721,-0.317163 -0.592389,-0.07747 -0.02473,-0.28833 0.581465,-0.04988 -0.04122,-0.48055 0.31476,-0.027 0.04122,0.480549 1.641077,-0.140776 q 0.187415,-0.01608 0.25915,-0.08274 0.06913,-0.06886 0.05614,-0.220234 -0.0074,-0.0865 -0.05508,-0.247 z"
           id="path24580" />
        <path
           d="m 18.50642,33.308176 q 0.520772,0.01152 0.775142,-0.146873 0.254371,-0.158398 0.26168,-0.488702 0.0051,-0.231455 -0.116834,-0.388532 -0.121903,-0.159488 -0.381489,-0.201415 l 0.03864,-0.438159 q 0.374993,0.05895 0.593239,0.333946 0.218245,0.274992 0.209068,0.689681 -0.01211,0.547293 -0.363284,0.828981 -0.353531,0.279224 -1.016551,0.264552 -0.658198,-0.01457 -0.996566,-0.311514 -0.340779,-0.297001 -0.328827,-0.837061 0.0089,-0.400223 0.222017,-0.658431 0.213213,-0.26062 0.578765,-0.320071 l 0.02388,0.446779 q -0.217736,0.02895 -0.348559,0.16355 -0.130823,0.134598 -0.136426,0.387751 -0.0076,0.344771 0.217999,0.504142 0.225629,0.159372 0.7681,0.171376 z"
           id="path24582" />
        <path
           d="m 17.848123,30.411221 q -0.228705,-0.180562 -0.312623,-0.392878 -0.08589,-0.215096 -0.0356,-0.512317 0.07082,-0.418486 0.313459,-0.580432 0.240665,-0.164725 0.730485,-0.08184 l 1.71437,0.290115 -0.07283,0.430375 -1.631147,-0.276031 q -0.271066,-0.04587 -0.410293,-0.01807 -0.141605,0.0274 -0.222741,0.131071 -0.08114,0.103671 -0.115338,0.305781 -0.0511,0.301976 0.127159,0.520473 0.178662,0.21612 0.53295,0.276074 l 1.517015,0.256717 -0.07243,0.427998 -3.528606,-0.597128 0.07243,-0.427998 0.917818,0.155317 q 0.145044,0.02454 0.297989,0.06021 0.153348,0.03329 0.176723,0.03969 z"
           id="path24584" />
        <path
           d="m 19.203197,28.162484 q -0.667889,-0.199137 -1.137412,-0.565612 -0.468835,-0.368787 -0.808432,-0.94314 l 0.119895,-0.40212 q 0.351842,0.575487 0.831988,0.940097 0.480834,0.362299 1.123302,0.553856 0.640157,0.190868 1.237887,0.152669 0.598419,-0.04051 1.216278,-0.331905 l -0.119895,0.40212 q -0.601683,0.296218 -1.195236,0.345729 -0.595864,0.04882 -1.259131,-0.148937 z"
           id="path24586" />
        <path
           d="m 21.874557,24.782236 -1.7747,0.312777 0.920248,1.563741 -0.210865,0.463094 -1.070906,-1.907921 -1.980534,0.409839 0.210865,-0.463094 1.60545,-0.3077 -0.832945,-1.388848 0.210864,-0.463094 0.988797,1.727444 2.144591,-0.409332 z"
           id="path24588" />
        <path
           d="m 21.821957,22.435997 q 0.588489,0.37338 0.939266,0.855836 0.35207,0.48042 0.522547,1.125514 l -0.224804,0.354315 q -0.18473,-0.654138 -0.544748,-1.131033 -0.362055,-0.478187 -0.930181,-0.838647 -0.568125,-0.360461 -1.156275,-0.482297 -0.586858,-0.123872 -1.254042,-0.01311 l 0.224804,-0.354314 q 0.659586,-0.121297 1.246247,-0.0061 0.584625,0.113888 1.169041,0.484684 z"
           id="path24590" />
      </g>
    </g>
    <g
       id="g19009"
       style="filter:url(#filter24887)">
      <path
         style="fill:none;stroke:#268bd2;stroke-width:0.265;stroke-linecap:butt;stroke-linejoin:miter;stroke-miterlimit:4;stroke-dasharray:none;stroke-opacity:1;marker-end:url(#Arrow2Lend)"
         d="m 64.910717,19.529754 h 2.359539"
         id="path6013"
         sodipodi:nodetypes="cc" />
      <g
         aria-label="case 2:"
         id="text8434"
         style="font-size:4.9389px;line-height:100%;letter-spacing:0px;word-spacing:0px;baseline-shift:baseline;vector-effect:none;fill:#268bd2;stroke-width:0.264583">
        <path
           d="m 72.492772,19.908528 q 0,0.5209 0.163987,0.771703 0.163987,0.250804 0.494372,0.250804 0.231511,0 0.385852,-0.125402 0.156752,-0.125402 0.192926,-0.385852 l 0.438906,0.02894 q -0.05064,0.376205 -0.320739,0.600482 -0.270096,0.224276 -0.684887,0.224276 -0.547427,0 -0.836815,-0.344855 -0.286977,-0.347266 -0.286977,-1.010449 0,-0.658359 0.289388,-1.003214 0.289389,-0.347266 0.829581,-0.347266 0.400321,0 0.663183,0.207395 0.265272,0.207395 0.332797,0.571543 l -0.446141,0.03376 q -0.03376,-0.217042 -0.171222,-0.344855 -0.13746,-0.127814 -0.390675,-0.127814 -0.344855,0 -0.499195,0.2291 -0.154341,0.229099 -0.154341,0.771703 z"
           id="path24231" />
        <path
           d="m 75.297431,21.273478 q -0.393087,0 -0.590835,-0.207395 -0.197749,-0.207396 -0.197749,-0.569131 0,-0.405145 0.265273,-0.622186 0.267684,-0.217042 0.860931,-0.231511 l 0.586012,-0.0096 v -0.142283 q 0,-0.318328 -0.135048,-0.455787 -0.135048,-0.13746 -0.424437,-0.13746 -0.2918,0 -0.424437,0.09887 -0.132636,0.09887 -0.159163,0.315916 l -0.453376,-0.041 q 0.110932,-0.704179 1.046622,-0.704179 0.491961,0 0.740353,0.226688 0.248392,0.224276 0.248392,0.651124 v 1.123793 q 0,0.192926 0.05064,0.2918 0.05064,0.09646 0.192926,0.09646 0.0627,0 0.142283,-0.01688 v 0.270096 q -0.163987,0.03859 -0.335209,0.03859 -0.241157,0 -0.352089,-0.125402 -0.108521,-0.127813 -0.122991,-0.397909 h -0.01447 q -0.166399,0.299035 -0.388263,0.424437 -0.219453,0.12299 -0.535369,0.12299 z m 0.09887,-0.325562 q 0.238746,0 0.424437,-0.108521 0.185691,-0.108521 0.2918,-0.296624 0.108521,-0.190514 0.108521,-0.390674 v -0.21463 l -0.47508,0.0096 q -0.306269,0.0048 -0.465433,0.0627 -0.156752,0.05788 -0.241157,0.178456 -0.08441,0.120579 -0.08441,0.315916 0,0.212219 0.113344,0.327974 0.115756,0.115756 0.327974,0.115756 z"
           id="path24233" />
        <path
           d="m 79.336814,20.504186 q 0,0.368971 -0.279742,0.569131 -0.277331,0.200161 -0.778938,0.200161 -0.487137,0 -0.75241,-0.159164 -0.262862,-0.161575 -0.342444,-0.501607 l 0.38344,-0.07476 q 0.05547,0.209807 0.2291,0.308682 0.173633,0.09646 0.482314,0.09646 0.330386,0 0.482315,-0.101286 0.15434,-0.101286 0.15434,-0.303858 0,-0.15434 -0.106109,-0.250803 -0.106109,-0.09646 -0.342443,-0.159164 l -0.311093,-0.08199 q -0.373794,-0.09646 -0.532958,-0.188103 -0.156752,-0.09405 -0.24598,-0.226688 -0.08923,-0.132636 -0.08923,-0.325562 0,-0.356913 0.253215,-0.542604 0.255627,-0.188102 0.742764,-0.188102 0.431672,0 0.684887,0.151929 0.255626,0.151929 0.32315,0.487137 l -0.390674,0.04823 q -0.03617,-0.173634 -0.195338,-0.265273 -0.156752,-0.09405 -0.422025,-0.09405 -0.294212,0 -0.434083,0.08923 -0.139871,0.08923 -0.139871,0.270096 0,0.110932 0.05788,0.183279 0.05788,0.07235 0.171221,0.12299 0.113344,0.05064 0.477492,0.139871 0.344855,0.08682 0.496784,0.161576 0.151929,0.07235 0.238745,0.161575 0.08923,0.08923 0.13746,0.207395 0.04823,0.115756 0.04823,0.265273 z"
           id="path24235" />
        <path
           d="m 80.180865,20.012226 q 0,0.448552 0.185691,0.692121 0.185691,0.243569 0.542603,0.243569 0.282154,0 0.450964,-0.113344 0.171222,-0.113344 0.231511,-0.286977 l 0.381029,0.10852 q -0.233923,0.617363 -1.063504,0.617363 -0.578777,0 -0.882635,-0.344855 -0.301447,-0.344855 -0.301447,-1.024918 0,-0.646302 0.301447,-0.991156 0.303858,-0.344855 0.865754,-0.344855 1.15032,0 1.15032,1.386654 v 0.05788 z m 1.413181,-0.332797 q -0.03617,-0.412379 -0.209807,-0.600482 -0.173633,-0.190514 -0.499195,-0.190514 -0.315916,0 -0.501607,0.212218 -0.18328,0.209807 -0.197749,0.578778 z"
           id="path24237" />
        <path
           d="m 83.882628,21.225246 v -0.306269 q 0.12299,-0.282154 0.299035,-0.496784 0.178457,-0.217042 0.373794,-0.390675 0.195337,-0.176045 0.385852,-0.325562 0.192925,-0.149518 0.347266,-0.299035 0.154341,-0.149518 0.248392,-0.313504 0.09646,-0.163987 0.09646,-0.371383 0,-0.279742 -0.163987,-0.434083 -0.163987,-0.15434 -0.455787,-0.15434 -0.277331,0 -0.458199,0.151929 -0.178456,0.149517 -0.209807,0.422025 l -0.443729,-0.041 q 0.04823,-0.407555 0.344855,-0.648713 0.299035,-0.241157 0.76688,-0.241157 0.513665,0 0.788584,0.243569 0.277331,0.241157 0.277331,0.687298 0,0.197749 -0.09164,0.393086 -0.08923,0.195338 -0.267685,0.390675 -0.178456,0.195337 -0.682475,0.605305 -0.27733,0.226687 -0.441317,0.409967 -0.163987,0.180868 -0.236334,0.349678 h 1.772505 v 0.36897 z"
           id="path24239" />
        <path
           d="m 86.831981,19.115121 v -0.499196 h 0.470256 v 0.499196 z m 0,2.110125 v -0.499195 h 0.470256 v 0.499195 z"
           id="path24241" />
      </g>
      <path
         style="fill:none;stroke:#268bd2;stroke-width:0.265;stroke-linecap:butt;stroke-linejoin:miter;stroke-miterlimit:4;stroke-dasharray:none;stroke-opacity:1;marker-end:url(#Arrow2Lend)"
         d="m 69.895974,28.164475 h 2.359539"
         id="path8900"
         sodipodi:nodetypes="cc" />
      <g
         aria-label="case 3:"
         id="text8904"
         style="font-size:4.9389px;line-height:100%;letter-spacing:0px;word-spacing:0px;baseline-shift:baseline;vector-effect:none;fill:#268bd2;stroke-width:0.264583">
        <path
           d="m 77.478032,28.54325 q 0,0.520899 0.163987,0.771703 0.163987,0.250803 0.494372,0.250803 0.231511,0 0.385852,-0.125401 0.156752,-0.125402 0.192926,-0.385852 l 0.438906,0.02894 q -0.05064,0.376205 -0.320739,0.600481 -0.270096,0.224277 -0.684887,0.224277 -0.547427,0 -0.836815,-0.344855 -0.286977,-0.347267 -0.286977,-1.010449 0,-0.658359 0.289388,-1.003214 0.289389,-0.347266 0.829581,-0.347266 0.400321,0 0.663183,0.207395 0.265272,0.207395 0.332797,0.571542 l -0.446141,0.03376 q -0.03376,-0.217041 -0.171222,-0.344854 -0.13746,-0.127814 -0.390675,-0.127814 -0.344855,0 -0.499195,0.2291 -0.154341,0.229099 -0.154341,0.771703 z"
           id="path24244" />
        <path
           d="m 80.282691,29.9082 q -0.393087,0 -0.590835,-0.207396 -0.197749,-0.207395 -0.197749,-0.569131 0,-0.405144 0.265273,-0.622185 0.267684,-0.217042 0.860931,-0.231511 l 0.586012,-0.0096 v -0.142282 q 0,-0.318328 -0.135048,-0.455787 -0.135048,-0.13746 -0.424437,-0.13746 -0.2918,0 -0.424437,0.09887 -0.132636,0.09887 -0.159163,0.315916 l -0.453376,-0.041 q 0.110932,-0.704179 1.046622,-0.704179 0.491961,0 0.740353,0.226687 0.248392,0.224277 0.248392,0.651125 v 1.123793 q 0,0.192925 0.05064,0.2918 0.05064,0.09646 0.192926,0.09646 0.0627,0 0.142283,-0.01688 v 0.270096 q -0.163987,0.03859 -0.335209,0.03859 -0.241157,0 -0.352089,-0.125402 -0.108521,-0.127813 -0.122991,-0.397909 h -0.01447 Q 81.039924,29.659808 80.81806,29.785209 80.598607,29.9082 80.282691,29.9082 Z m 0.09887,-0.325563 q 0.238746,0 0.424437,-0.10852 0.185691,-0.108521 0.2918,-0.296624 0.108521,-0.190514 0.108521,-0.390674 v -0.21463 l -0.47508,0.0096 q -0.306269,0.0048 -0.465433,0.0627 -0.156752,0.05788 -0.241157,0.178456 -0.08441,0.120579 -0.08441,0.315916 0,0.212218 0.113343,0.327974 0.115756,0.115755 0.327974,0.115755 z"
           id="path24246" />
        <path
           d="m 84.322074,29.138908 q 0,0.368971 -0.279742,0.569131 -0.277331,0.200161 -0.778938,0.200161 -0.487137,0 -0.75241,-0.159164 -0.262862,-0.161575 -0.342444,-0.501607 l 0.38344,-0.07476 q 0.05547,0.209807 0.2291,0.308681 0.173633,0.09646 0.482314,0.09646 0.330386,0 0.482315,-0.101286 0.15434,-0.101286 0.15434,-0.303858 0,-0.154341 -0.106109,-0.250803 -0.106109,-0.09646 -0.342443,-0.159164 l -0.311093,-0.08199 q -0.373794,-0.09646 -0.532958,-0.188102 -0.156752,-0.09405 -0.24598,-0.226688 -0.08923,-0.132637 -0.08923,-0.325562 0,-0.356913 0.253215,-0.542604 0.255627,-0.188103 0.742764,-0.188103 0.431672,0 0.684887,0.151929 0.255626,0.151929 0.32315,0.487138 l -0.390674,0.04823 q -0.03617,-0.173633 -0.195338,-0.265273 -0.156752,-0.09405 -0.422025,-0.09405 -0.294212,0 -0.434083,0.08923 -0.139871,0.08923 -0.139871,0.270096 0,0.110933 0.05788,0.18328 0.05788,0.07235 0.171221,0.12299 0.113344,0.05064 0.477492,0.139871 0.344855,0.08682 0.496784,0.161576 0.151929,0.07235 0.238745,0.161575 0.08923,0.08923 0.13746,0.207395 0.04823,0.115756 0.04823,0.265273 z"
           id="path24248" />
        <path
           d="m 85.166125,28.646947 q 0,0.448553 0.185691,0.692122 0.185691,0.243568 0.542603,0.243568 0.282154,0 0.450965,-0.113344 0.171221,-0.113343 0.23151,-0.286977 l 0.381029,0.108521 Q 86.724,29.9082 85.894419,29.9082 q -0.578777,0 -0.882635,-0.344855 -0.301446,-0.344855 -0.301446,-1.024918 0,-0.646302 0.301446,-0.991157 0.303858,-0.344854 0.865754,-0.344854 1.15032,0 1.15032,1.386654 v 0.05788 z m 1.413181,-0.332797 q -0.03617,-0.412378 -0.209807,-0.600481 -0.173633,-0.190514 -0.499195,-0.190514 -0.315916,0 -0.501607,0.212218 -0.18328,0.209807 -0.197749,0.578777 z"
           id="path24250" />
        <path
           d="m 91.149236,28.921867 q 0,0.470256 -0.299035,0.728294 -0.299035,0.258039 -0.853697,0.258039 -0.516076,0 -0.824758,-0.231511 -0.306269,-0.233923 -0.364147,-0.68971 l 0.448552,-0.041 q 0.08682,0.602893 0.740353,0.602893 0.327974,0 0.513665,-0.161575 0.188103,-0.161575 0.188103,-0.479903 0,-0.277331 -0.21463,-0.431671 -0.212219,-0.156752 -0.614951,-0.156752 H 89.62271 v -0.376206 h 0.236334 q 0.356913,0 0.552251,-0.15434 0.197748,-0.156753 0.197748,-0.431672 0,-0.272507 -0.161575,-0.42926 -0.159164,-0.159163 -0.47508,-0.159163 -0.286977,0 -0.465433,0.147105 -0.176045,0.147106 -0.204984,0.414791 l -0.436494,-0.03376 q 0.04823,-0.417202 0.344855,-0.651125 0.299035,-0.233922 0.76688,-0.233922 0.511253,0 0.793407,0.238746 0.284565,0.236334 0.284565,0.66077 0,0.325563 -0.183279,0.530546 -0.180868,0.202572 -0.528134,0.274919 v 0.0096 q 0.381028,0.041 0.593246,0.255626 0.212219,0.21463 0.212219,0.540193 z"
           id="path24252" />
        <path
           d="m 91.817241,27.749842 v -0.499195 h 0.470256 v 0.499195 z m 0,2.110126 v -0.499195 h 0.470256 v 0.499195 z"
           id="path24254" />
      </g>
      <path
         style="fill:none;stroke:#268bd2;stroke-width:0.265;stroke-linecap:butt;stroke-linejoin:miter;stroke-miterlimit:4;stroke-dasharray:none;stroke-opacity:1;marker-end:url(#Arrow2Lend)"
         d="m 69.895977,38.134988 h 2.359539"
         id="path8908"
         sodipodi:nodetypes="cc" />
      <g
         aria-label="case 5:"
         id="text8912"
         style="font-size:4.9389px;line-height:100%;letter-spacing:0px;word-spacing:0px;baseline-shift:baseline;vector-effect:none;fill:#268bd2;stroke-width:0.264583">
        <path
           d="m 77.478032,38.513764 q 0,0.5209 0.163987,0.771703 0.163987,0.250804 0.494372,0.250804 0.231511,0 0.385852,-0.125402 0.156752,-0.125402 0.192926,-0.385852 l 0.438906,0.02894 q -0.05064,0.376205 -0.320739,0.600482 -0.270096,0.224276 -0.684887,0.224276 -0.547427,0 -0.836815,-0.344855 -0.286977,-0.347266 -0.286977,-1.010449 0,-0.658359 0.289388,-1.003214 0.289389,-0.347266 0.829581,-0.347266 0.400321,0 0.663183,0.207395 0.265272,0.207395 0.332797,0.571543 l -0.446141,0.03376 q -0.03376,-0.217042 -0.171222,-0.344855 -0.13746,-0.127813 -0.390675,-0.127813 -0.344855,0 -0.499195,0.229099 -0.154341,0.229099 -0.154341,0.771703 z"
           id="path24257" />
        <path
           d="m 80.282691,39.878714 q -0.393087,0 -0.590835,-0.207395 -0.197749,-0.207396 -0.197749,-0.569131 0,-0.405144 0.265273,-0.622186 0.267684,-0.217041 0.860931,-0.231511 l 0.586012,-0.0096 v -0.142283 q 0,-0.318328 -0.135048,-0.455787 -0.135048,-0.13746 -0.424437,-0.13746 -0.2918,0 -0.424437,0.09887 -0.132636,0.09887 -0.159163,0.315916 l -0.453376,-0.041 q 0.110932,-0.704179 1.046622,-0.704179 0.491961,0 0.740353,0.226688 0.248392,0.224276 0.248392,0.651124 v 1.123793 q 0,0.192926 0.05064,0.2918 0.05064,0.09646 0.192926,0.09646 0.0627,0 0.142283,-0.01688 v 0.270096 q -0.163987,0.03859 -0.335209,0.03859 -0.241157,0 -0.352089,-0.125402 -0.108521,-0.127813 -0.122991,-0.397909 h -0.01447 q -0.166399,0.299035 -0.388263,0.424437 -0.219453,0.12299 -0.535369,0.12299 z m 0.09887,-0.325562 q 0.238746,0 0.424437,-0.108521 0.185691,-0.108521 0.2918,-0.296623 0.108521,-0.190515 0.108521,-0.390675 v -0.21463 l -0.47508,0.0096 q -0.306269,0.0048 -0.465433,0.0627 -0.156752,0.05788 -0.241157,0.178456 -0.08441,0.120579 -0.08441,0.315916 0,0.212219 0.113343,0.327974 0.115756,0.115756 0.327974,0.115756 z"
           id="path24259" />
        <path
           d="m 84.322074,39.109422 q 0,0.368971 -0.279742,0.569131 -0.277331,0.200161 -0.778938,0.200161 -0.487137,0 -0.75241,-0.159164 -0.262862,-0.161575 -0.342444,-0.501607 l 0.38344,-0.07476 q 0.05547,0.209807 0.2291,0.308682 0.173633,0.09646 0.482314,0.09646 0.330386,0 0.482315,-0.101287 0.15434,-0.101286 0.15434,-0.303858 0,-0.15434 -0.106109,-0.250803 -0.106109,-0.09646 -0.342443,-0.159164 l -0.311093,-0.08199 q -0.373794,-0.09646 -0.532958,-0.188103 -0.156752,-0.09405 -0.24598,-0.226688 -0.08923,-0.132636 -0.08923,-0.325562 0,-0.356913 0.253215,-0.542604 0.255627,-0.188102 0.742764,-0.188102 0.431672,0 0.684887,0.151929 0.255626,0.151929 0.32315,0.487137 l -0.390674,0.04823 q -0.03617,-0.173634 -0.195338,-0.265273 -0.156752,-0.09405 -0.422025,-0.09405 -0.294212,0 -0.434083,0.08923 -0.139871,0.08923 -0.139871,0.270096 0,0.110932 0.05788,0.183279 0.05788,0.07235 0.171221,0.12299 0.113344,0.05064 0.477492,0.139872 0.344855,0.08682 0.496784,0.161575 0.151929,0.07235 0.238745,0.161575 0.08923,0.08923 0.13746,0.207395 0.04823,0.115756 0.04823,0.265273 z"
           id="path24261" />
        <path
           d="m 85.166125,38.617462 q 0,0.448552 0.185691,0.692121 0.185691,0.243569 0.542603,0.243569 0.282154,0 0.450965,-0.113344 0.171221,-0.113344 0.23151,-0.286977 l 0.381029,0.10852 q -0.233923,0.617363 -1.063504,0.617363 -0.578777,0 -0.882635,-0.344855 -0.301446,-0.344855 -0.301446,-1.024918 0,-0.646301 0.301446,-0.991156 0.303858,-0.344855 0.865754,-0.344855 1.15032,0 1.15032,1.386654 v 0.05788 z m 1.413181,-0.332797 q -0.03617,-0.412379 -0.209807,-0.600482 -0.173633,-0.190514 -0.499195,-0.190514 -0.315916,0 -0.501607,0.212218 -0.18328,0.209807 -0.197749,0.578778 z"
           id="path24263" />
        <path
           d="m 91.158882,38.723571 q 0,0.53778 -0.320739,0.846462 -0.318328,0.308681 -0.885047,0.308681 -0.47508,0 -0.76688,-0.207395 -0.2918,-0.207396 -0.368971,-0.600482 l 0.438906,-0.05064 q 0.13746,0.504019 0.706591,0.504019 0.349678,0 0.547427,-0.209807 0.197749,-0.212218 0.197749,-0.581189 0,-0.320739 -0.200161,-0.518488 -0.197748,-0.197749 -0.535369,-0.197749 -0.176044,0 -0.327973,0.05547 -0.151929,0.05547 -0.303859,0.188103 H 88.91612 l 0.113344,-1.827972 h 1.931669 v 0.368971 h -1.536172 l -0.06511,1.077973 q 0.282154,-0.217042 0.701768,-0.217042 0.501607,0 0.79823,0.294212 0.299035,0.294212 0.299035,0.76688 z"
           id="path24265" />
        <path
           d="m 91.817241,37.720357 v -0.499196 h 0.470256 v 0.499196 z m 0,2.110125 v -0.499195 h 0.470256 v 0.499195 z"
           id="path24267" />
      </g>
      <path
         style="fill:none;stroke:#268bd2;stroke-width:0.265;stroke-linecap:butt;stroke-linejoin:miter;stroke-miterlimit:4;stroke-dasharray:none;stroke-opacity:1;marker-end:url(#Arrow2Lend)"
         d="m 64.91072,46.769709 h 2.359539"
         id="path8916"
         sodipodi:nodetypes="cc" />
      <g
         aria-label="default:"
         id="text8920"
         style="font-size:4.9389px;line-height:100%;letter-spacing:0px;word-spacing:0px;baseline-shift:baseline;vector-effect:none;fill:#268bd2;stroke-width:0.264583">
        <path
           d="m 73.809491,48.045589 q -0.120579,0.250803 -0.320739,0.359324 -0.197749,0.108521 -0.491961,0.108521 -0.494372,0 -0.728295,-0.332797 -0.231511,-0.332797 -0.231511,-1.008037 0,-1.36495 0.959806,-1.36495 0.296623,0 0.494372,0.10852 0.197749,0.108521 0.318328,0.344855 h 0.0048 l -0.0048,-0.2918 v -1.082796 h 0.434083 v 3.040993 q 0,0.407555 0.01447,0.53778 h -0.41479 q -0.0072,-0.03858 -0.01688,-0.178456 -0.0072,-0.139871 -0.0072,-0.241157 z M 72.492772,47.15813 q 0,0.547427 0.144695,0.783761 0.144694,0.236334 0.470256,0.236334 0.368971,0 0.535369,-0.255626 0.166399,-0.255627 0.166399,-0.793408 0,-0.518488 -0.166399,-0.759645 -0.166398,-0.241157 -0.530546,-0.241157 -0.327974,0 -0.475079,0.243569 -0.144695,0.241157 -0.144695,0.786172 z"
           id="path24270" />
        <path
           d="m 75.241965,47.252181 q 0,0.448553 0.185691,0.692122 0.185691,0.243569 0.542603,0.243569 0.282154,0 0.450964,-0.113344 0.171222,-0.113344 0.231511,-0.286977 l 0.381029,0.10852 q -0.233923,0.617363 -1.063504,0.617363 -0.578777,0 -0.882635,-0.344855 -0.301446,-0.344855 -0.301446,-1.024918 0,-0.646302 0.301446,-0.991156 0.303858,-0.344855 0.865754,-0.344855 1.15032,0 1.15032,1.386654 v 0.05788 z m 1.413181,-0.332796 q -0.03617,-0.412379 -0.209807,-0.600482 -0.173633,-0.190514 -0.499195,-0.190514 -0.315916,0 -0.501607,0.212218 -0.18328,0.209807 -0.197749,0.578778 z"
           id="path24272" />
        <path
           d="m 78.193729,46.171797 v 2.293405 h -0.434083 v -2.293405 h -0.366559 v -0.315916 h 0.366559 v -0.294212 q 0,-0.356912 0.156752,-0.513665 0.156753,-0.156752 0.479903,-0.156752 0.180868,0 0.30627,0.02894 v 0.330386 q -0.108521,-0.01929 -0.192926,-0.01929 -0.166398,0 -0.241157,0.0844 -0.07476,0.08441 -0.07476,0.30627 v 0.233922 h 0.508842 v 0.315916 z"
           id="path24274" />
        <path
           d="m 79.693727,48.513434 q -0.393086,0 -0.590835,-0.207395 -0.197749,-0.207396 -0.197749,-0.569131 0,-0.405145 0.265273,-0.622186 0.267685,-0.217042 0.860931,-0.231511 l 0.586012,-0.0096 v -0.142283 q 0,-0.318328 -0.135048,-0.455787 -0.135048,-0.13746 -0.424436,-0.13746 -0.291801,0 -0.424437,0.09887 -0.132637,0.09887 -0.159164,0.315916 l -0.453375,-0.041 q 0.110932,-0.704179 1.046622,-0.704179 0.491961,0 0.740353,0.226687 0.248392,0.224277 0.248392,0.651125 v 1.123793 q 0,0.192925 0.05064,0.2918 0.05064,0.09646 0.192925,0.09646 0.0627,0 0.142283,-0.01688 v 0.270096 q -0.163987,0.03858 -0.335208,0.03858 -0.241158,0 -0.35209,-0.125402 -0.108521,-0.127813 -0.12299,-0.397909 h -0.01447 q -0.166398,0.299035 -0.388263,0.424437 -0.219453,0.12299 -0.535369,0.12299 z m 0.09888,-0.325562 q 0.238745,0 0.424436,-0.108521 0.185692,-0.108521 0.291801,-0.296624 0.10852,-0.190514 0.10852,-0.390674 v -0.21463 l -0.475079,0.0096 q -0.30627,0.0048 -0.465434,0.0627 -0.156752,0.05788 -0.241157,0.178456 -0.0844,0.120579 -0.0844,0.315916 0,0.212219 0.113344,0.327974 0.115755,0.115756 0.327974,0.115756 z"
           id="path24276" />
        <path
           d="m 82.19935,45.855881 v 1.654339 q 0,0.258038 0.05064,0.400321 0.05064,0.142282 0.161576,0.204983 0.110932,0.0627 0.325562,0.0627 0.313504,0 0.494372,-0.21463 0.180868,-0.21463 0.180868,-0.595658 v -1.512056 h 0.434083 v 2.052248 q 0,0.455787 0.01447,0.557073 h -0.409968 q -0.0024,-0.01206 -0.0048,-0.06511 -0.0024,-0.05306 -0.0072,-0.120579 -0.0024,-0.06994 -0.0072,-0.26045 h -0.0072 q -0.149517,0.270097 -0.347266,0.38344 -0.195338,0.110933 -0.487138,0.110933 -0.42926,0 -0.62942,-0.212219 -0.197749,-0.21463 -0.197749,-0.70659 v -1.738744 z"
           id="path24278" />
        <path
           d="m 84.521695,48.465202 v -3.578773 h 0.434083 v 3.578773 z"
           id="path24280" />
        <path
           d="m 86.622174,48.44591 q -0.21463,0.05788 -0.438906,0.05788 -0.520899,0 -0.520899,-0.590835 v -1.741155 h -0.301447 v -0.315916 h 0.318328 l 0.127813,-0.5836 h 0.289389 v 0.5836 h 0.482314 v 0.315916 h -0.482314 v 1.647104 q 0,0.188103 0.06029,0.265273 0.0627,0.07476 0.21463,0.07476 0.08682,0 0.250803,-0.03376 z"
           id="path24282" />
        <path
           d="m 87.109312,46.355077 v -0.499196 h 0.470257 v 0.499196 z m 0,2.110125 v -0.499195 h 0.470257 v 0.499195 z"
           id="path24284" />
      </g>
      <circle
         id="circle9110"
         style="fill:#268bd2;stroke:none;stroke-width:0.264583"
         cx="45.071987"
         cy="25.782879"
         r="0.97098547" />
      <g
         aria-label="2"
         id="text9194"
         style="font-size:4.9389px;line-height:100%;letter-spacing:0px;word-spacing:0px;baseline-shift:baseline;vector-effect:none;fill:#268bd2;stroke-width:0.264583">
        <path
           d="m 50.204778,21.249361 v -0.30627 q 0.12299,-0.282154 0.299035,-0.496784 0.178457,-0.217041 0.373794,-0.390674 0.195337,-0.176045 0.385852,-0.325562 0.192925,-0.149518 0.347266,-0.299035 0.154341,-0.149518 0.248392,-0.313505 0.09646,-0.163987 0.09646,-0.371382 0,-0.279742 -0.163987,-0.434083 -0.163987,-0.154341 -0.455787,-0.154341 -0.277331,0 -0.458199,0.151929 -0.178456,0.149518 -0.209807,0.422026 l -0.443729,-0.041 q 0.04823,-0.407556 0.344855,-0.648713 0.299035,-0.241157 0.76688,-0.241157 0.513665,0 0.788584,0.243569 0.277331,0.241157 0.277331,0.687298 0,0.197749 -0.09164,0.393086 -0.08923,0.195337 -0.267685,0.390675 -0.178456,0.195337 -0.682475,0.605304 -0.27733,0.226688 -0.441317,0.409968 -0.163987,0.180867 -0.236334,0.349677 h 1.772505 v 0.368971 z"
           style="text-align:center;text-anchor:middle"
           id="path24287" />
      </g>
      <g
         aria-label="3"
         id="text10238"
         style="font-size:4.9389px;line-height:100%;letter-spacing:0px;word-spacing:0px;baseline-shift:baseline;vector-effect:none;fill:#268bd2;stroke-width:0.264583">
        <path
           d="m 57.471382,28.945981 q 0,0.470257 -0.299035,0.728295 -0.299035,0.258038 -0.853697,0.258038 -0.516076,0 -0.824757,-0.231511 -0.30627,-0.233922 -0.364148,-0.689709 l 0.448553,-0.041 q 0.08682,0.602893 0.740352,0.602893 0.327974,0 0.513665,-0.161575 0.188103,-0.161576 0.188103,-0.479903 0,-0.277331 -0.21463,-0.431672 -0.212218,-0.156752 -0.614951,-0.156752 h -0.24598 v -0.376205 h 0.236334 q 0.356912,0 0.55225,-0.154341 0.197749,-0.156752 0.197749,-0.431671 0,-0.272508 -0.161576,-0.42926 -0.159163,-0.159164 -0.475079,-0.159164 -0.286978,0 -0.465434,0.147106 -0.176045,0.147106 -0.204983,0.41479 l -0.436495,-0.03376 q 0.04823,-0.417202 0.344855,-0.651124 0.299035,-0.233923 0.76688,-0.233923 0.511253,0 0.793407,0.238746 0.284566,0.236334 0.284566,0.660771 0,0.325562 -0.18328,0.530546 -0.180868,0.202572 -0.528134,0.274919 v 0.0096 q 0.381028,0.041 0.593246,0.255627 0.212219,0.21463 0.212219,0.540192 z"
           style="text-align:center;text-anchor:middle"
           id="path24290" />
      </g>
      <g
         aria-label="5"
         id="text10242"
         style="font-size:4.9389px;line-height:100%;letter-spacing:0px;word-spacing:0px;baseline-shift:baseline;vector-effect:none;fill:#268bd2;stroke-width:0.264583">
        <path
           d="m 57.481032,38.747684 q 0,0.53778 -0.320739,0.846461 -0.318328,0.308682 -0.885047,0.308682 -0.47508,0 -0.76688,-0.207396 -0.2918,-0.207395 -0.368971,-0.600481 l 0.438906,-0.05064 q 0.13746,0.504019 0.706591,0.504019 0.349678,0 0.547427,-0.209807 0.197749,-0.212219 0.197749,-0.581189 0,-0.320739 -0.200161,-0.518488 -0.197748,-0.197749 -0.535369,-0.197749 -0.176044,0 -0.327973,0.05547 -0.151929,0.05547 -0.303859,0.188103 H 55.23827 l 0.113344,-1.827972 h 1.931669 v 0.36897 h -1.536171 l -0.06511,1.077973 q 0.282154,-0.217041 0.701768,-0.217041 0.501607,0 0.79823,0.294212 0.299035,0.294211 0.299035,0.76688 z"
           style="text-align:center;text-anchor:middle"
           id="path24293" />
      </g>
      <g
         aria-label="?"
         id="text10246"
         style="font-size:4.9389px;line-height:100%;letter-spacing:0px;word-spacing:0px;baseline-shift:baseline;vector-effect:none;fill:#268bd2;stroke-width:0.264583">
        <path
           d="m 52.519888,46.000572 q 0,0.180868 -0.05306,0.323151 -0.05306,0.142283 -0.151929,0.262862 -0.09887,0.120578 -0.323151,0.284565 l -0.192925,0.142283 q -0.173634,0.125402 -0.258039,0.265273 -0.0844,0.137459 -0.08682,0.301446 h -0.422025 q 0.0048,-0.166398 0.05064,-0.2918 0.04823,-0.125402 0.12299,-0.221865 0.07476,-0.09646 0.16881,-0.171221 0.09405,-0.07717 0.190514,-0.144695 0.09646,-0.06994 0.188103,-0.137459 0.09405,-0.06994 0.166398,-0.154341 0.07235,-0.0844 0.115756,-0.190514 0.04582,-0.106109 0.04582,-0.248392 0,-0.274919 -0.188103,-0.434083 -0.185691,-0.159164 -0.523311,-0.159164 -0.33762,0 -0.535369,0.16881 -0.197749,0.16881 -0.231511,0.463022 l -0.44373,-0.02894 q 0.0627,-0.477491 0.376206,-0.733118 0.313504,-0.255626 0.829581,-0.255626 0.53778,0 0.846461,0.255626 0.308682,0.253215 0.308682,0.704179 z m -1.507233,2.488743 v -0.484726 h 0.470257 v 0.484726 z"
           style="text-align:center;text-anchor:middle"
           id="path24296" />
      </g>
      <g
         aria-label="X"
         id="text19331"
         style="font-size:4.9389px;line-height:100%;letter-spacing:0px;word-spacing:0px;baseline-shift:baseline;vector-effect:none;fill:#268bd2;stroke-width:0.264583">
        <path
           d="m 38.758831,34.845226 -1.020096,-1.485528 -1.041799,1.485528 h -0.508841 l 1.292602,-1.765271 -1.193728,-1.632634 h 0.508842 l 0.945336,1.333599 0.918809,-1.333599 h 0.508842 l -1.162378,1.615753 1.261252,1.782152 z"
           style="text-align:center;text-anchor:middle"
           id="path24299" />
      </g>
      <g
         aria-label="switch(X)"
         id="text19829"
         style="font-size:4.9389px;line-height:100%;letter-spacing:0px;word-spacing:0px;baseline-shift:baseline;vector-effect:none;fill:#268bd2;stroke-width:0.264583">
        <path
           d="m 20.536093,40.361768 q 0.331367,-0.162282 0.634165,9.15e-4 0.301737,0.161031 0.522356,0.611517 0.214254,0.437491 0.187985,0.745732 -0.0295,0.307136 -0.299871,0.528161 l -0.235786,-0.311481 q 0.164029,-0.142091 0.176459,-0.341515 0.01026,-0.198364 -0.125501,-0.475586 -0.145311,-0.296714 -0.303097,-0.388611 -0.158846,-0.09406 -0.340773,-0.005 -0.13861,0.06788 -0.178573,0.205604 -0.03996,0.137721 0.0077,0.377547 l 0.06319,0.31545 q 0.07777,0.378125 0.06547,0.561373 -0.01552,0.182142 -0.0954,0.320613 -0.07987,0.138471 -0.253138,0.223324 -0.320538,0.156979 -0.598674,0.01124 -0.281363,-0.146843 -0.495617,-0.584334 -0.189859,-0.387677 -0.164784,-0.681907 0.02401,-0.296397 0.295362,-0.504471 l 0.215144,0.329645 q -0.140028,0.108855 -0.152324,0.292103 -0.01552,0.182142 0.10115,0.42038 0.129401,0.264227 0.271054,0.350599 0.141653,0.08637 0.304088,0.0068 0.09963,-0.04879 0.139145,-0.132589 0.03952,-0.0838 0.03515,-0.207866 -0.0044,-0.124066 -0.0844,-0.490346 -0.07371,-0.347893 -0.07339,-0.517218 -0.0018,-0.168265 0.0401,-0.285479 0.04089,-0.119379 0.125801,-0.214667 0.08275,-0.09423 0.217024,-0.159989 z"
           id="path24302" />
        <path
           d="m 20.258625,37.178962 0.142411,0.483481 -1.640895,0.958482 -0.366418,0.198435 q 0.110231,-0.0098 0.319809,-0.02381 0.207264,-0.01328 1.998902,-0.07593 l 0.14173,0.481167 -2.296534,1.438201 -0.121288,-0.411768 1.575584,-0.92416 q 0.05075,-0.03255 0.428735,-0.234389 l -0.182769,0.0111 -2.141124,0.06251 -0.13151,-0.446468 1.590003,-0.943491 0.408184,-0.235877 -0.342673,0.023 -1.97645,0.0668 -0.119926,-0.407142 z"
           id="path24304" />
        <path
           d="m 16.952056,36.614632 -0.409814,0.06406 -0.06704,-0.428875 0.409814,-0.06406 z m 3.126023,-0.488638 -2.578016,0.402977 -0.06704,-0.428875 2.578016,-0.402977 z"
           id="path24306" />
        <path
           d="m 19.821459,34.038893 q 0.07601,0.208898 0.09518,0.432353 0.04452,0.518994 -0.544152,0.569492 l -1.734784,0.148815 0.02576,0.300344 -0.31476,0.027 -0.02721,-0.317163 -0.592389,-0.07747 -0.02473,-0.28833 0.581465,-0.04988 -0.04122,-0.48055 0.31476,-0.027 0.04122,0.480549 1.641077,-0.140776 q 0.187415,-0.01608 0.25915,-0.08274 0.06913,-0.06886 0.05614,-0.220234 -0.0074,-0.0865 -0.05508,-0.247 z"
           id="path24308" />
        <path
           d="m 18.50642,33.308176 q 0.520772,0.01152 0.775142,-0.146873 0.254371,-0.158398 0.26168,-0.488702 0.0051,-0.231455 -0.116834,-0.388532 -0.121903,-0.159488 -0.381489,-0.201415 l 0.03864,-0.438159 q 0.374993,0.05895 0.593239,0.333946 0.218245,0.274992 0.209068,0.689681 -0.01211,0.547293 -0.363284,0.828981 -0.353531,0.279224 -1.016551,0.264552 -0.658198,-0.01457 -0.996566,-0.311514 -0.340779,-0.297001 -0.328827,-0.837061 0.0089,-0.400223 0.222017,-0.658431 0.213213,-0.26062 0.578765,-0.320071 l 0.02388,0.446779 q -0.217736,0.02895 -0.348559,0.16355 -0.130823,0.134598 -0.136426,0.387751 -0.0076,0.344771 0.217999,0.504142 0.225629,0.159372 0.7681,0.171376 z"
           id="path24310" />
        <path
           d="m 17.848123,30.411221 q -0.228705,-0.180562 -0.312623,-0.392878 -0.08589,-0.215096 -0.0356,-0.512317 0.07082,-0.418486 0.313459,-0.580432 0.240665,-0.164725 0.730485,-0.08184 l 1.71437,0.290115 -0.07283,0.430375 -1.631147,-0.276031 q -0.271066,-0.04587 -0.410293,-0.01807 -0.141605,0.0274 -0.222741,0.131071 -0.08114,0.103671 -0.115338,0.305781 -0.0511,0.301976 0.127159,0.520473 0.178662,0.21612 0.53295,0.276074 l 1.517015,0.256717 -0.07243,0.427998 -3.528606,-0.597128 0.07243,-0.427998 0.917818,0.155317 q 0.145044,0.02454 0.297989,0.06021 0.153348,0.03329 0.176723,0.03969 z"
           id="path24312" />
        <path
           d="m 19.203197,28.162484 q -0.667889,-0.199137 -1.137412,-0.565612 -0.468835,-0.368787 -0.808432,-0.94314 l 0.119895,-0.40212 q 0.351842,0.575487 0.831988,0.940097 0.480834,0.362299 1.123302,0.553856 0.640157,0.190868 1.237887,0.152669 0.598419,-0.04051 1.216278,-0.331905 l -0.119895,0.40212 q -0.601683,0.296218 -1.195236,0.345729 -0.595864,0.04882 -1.259131,-0.148937 z"
           id="path24314" />
        <path
           d="m 21.874557,24.782236 -1.7747,0.312777 0.920248,1.563741 -0.210865,0.463094 -1.070906,-1.907921 -1.980534,0.409839 0.210865,-0.463094 1.60545,-0.3077 -0.832945,-1.388848 0.210864,-0.463094 0.988797,1.727444 2.144591,-0.409332 z"
           id="path24316" />
        <path
           d="m 21.821957,22.435997 q 0.588489,0.37338 0.939266,0.855836 0.35207,0.48042 0.522547,1.125514 l -0.224804,0.354315 q -0.18473,-0.654138 -0.544748,-1.131033 -0.362055,-0.478187 -0.930181,-0.838647 -0.568125,-0.360461 -1.156275,-0.482297 -0.586858,-0.123872 -1.254042,-0.01311 l 0.224804,-0.354314 q 0.659586,-0.121297 1.246247,-0.0061 0.584625,0.113888 1.169041,0.484684 z"
           id="path24318" />
      </g>
    </g>
  </g>
  <metadata
     id="metadata1000">
    <rdf:RDF>
      <cc:Work
         rdf:about="">
        <dc:creator>
          <cc:Agent>
            <dc:title>Roger Willian (github.com/roger-willian)</dc:title>
          </cc:Agent>
        </dc:creator>
      </cc:Work>
    </rdf:RDF>
  </metadata>
</svg>
